<svg width="25" height="25" viewBox="0 0 25 25" fill="none" xmlns="http://www.w3.org/2000/svg">
<path d="M17.1407 7.76563C17.3608 7.55609 17.6537 7.44024 17.9576 7.44254C18.2615 7.44484 18.5526 7.5651 18.7695 7.77796C18.9864 7.99081 19.1121 8.27961 19.1202 8.58341C19.1282 8.8872 19.0179 9.18224 18.8125 9.40626L12.5782 17.2031C12.471 17.3186 12.3416 17.4113 12.1977 17.4756C12.0539 17.5399 11.8986 17.5746 11.7411 17.5775C11.5835 17.5804 11.427 17.5515 11.2809 17.4926C11.1348 17.4336 11.0021 17.3458 10.8907 17.2344L6.75628 13.1C6.64115 12.9927 6.5488 12.8633 6.48475 12.7196C6.4207 12.5759 6.38626 12.4207 6.38348 12.2633C6.38071 12.106 6.40965 11.9497 6.46859 11.8038C6.52753 11.6578 6.61526 11.5253 6.72654 11.414C6.83781 11.3027 6.97037 11.215 7.11629 11.1561C7.26221 11.0971 7.4185 11.0682 7.57585 11.071C7.7332 11.0737 7.88837 11.1082 8.03212 11.1722C8.17587 11.2363 8.30525 11.3286 8.41253 11.4438L11.6844 14.7141L17.111 7.80001C17.1207 7.78798 17.1312 7.7765 17.1422 7.76563H17.1407Z" fill="white"/>
</svg>
